<mxfile host="app.diagrams.net" modified="2020-03-14T11:01:21.235Z" agent="Mozilla/5.0 (X11; Ubuntu; Linux x86_64; rv:74.0) Gecko/20100101 Firefox/74.0" etag="D2pzjF4Jc9Rb4gp4DoG6" version="12.8.4" type="github">
  <diagram id="SoAn3wfK-fjryEKBjV1P" name="Page-1">
    <mxGraphModel dx="2175" dy="1176" grid="1" gridSize="10" guides="1" tooltips="1" connect="1" arrows="1" fold="1" page="0" pageScale="1" pageWidth="850" pageHeight="1100" math="0" shadow="0">
      <root>
        <mxCell id="0" />
        <mxCell id="1" parent="0" />
        <mxCell id="hhIk1MnQmaRh9NZraO68-1" value="&lt;div&gt;&lt;u&gt;&lt;font style=&quot;font-size: 14px&quot;&gt;&lt;b&gt;Magento 2&lt;/b&gt;&lt;/font&gt;&lt;/u&gt;&lt;/div&gt;" style="text;html=1;align=center;verticalAlign=middle;resizable=0;points=[];autosize=1;" vertex="1" parent="1">
          <mxGeometry x="-530" width="100" height="20" as="geometry" />
        </mxCell>
        <mxCell id="hhIk1MnQmaRh9NZraO68-2" value="&lt;div&gt;&lt;i&gt;&lt;b&gt;Controllers&lt;/b&gt;&lt;/i&gt;&lt;/div&gt;&lt;div&gt;&lt;i&gt;&lt;br&gt;&lt;/i&gt;&lt;/div&gt;" style="text;html=1;align=center;verticalAlign=middle;resizable=0;points=[];autosize=1;" vertex="1" parent="1">
          <mxGeometry x="-525" y="39" width="90" height="30" as="geometry" />
        </mxCell>
        <mxCell id="hhIk1MnQmaRh9NZraO68-3" value="&lt;b&gt;Representation&lt;/b&gt;" style="text;html=1;align=center;verticalAlign=middle;resizable=0;points=[];autosize=1;" vertex="1" parent="1">
          <mxGeometry x="-538" y="100" width="120" height="20" as="geometry" />
        </mxCell>
        <mxCell id="hhIk1MnQmaRh9NZraO68-4" value="Directory" style="rounded=1;whiteSpace=wrap;html=1;" vertex="1" parent="1">
          <mxGeometry x="-535.5" y="150" width="115" height="40" as="geometry" />
        </mxCell>
        <mxCell id="hhIk1MnQmaRh9NZraO68-5" value="Files" style="rounded=0;whiteSpace=wrap;html=1;" vertex="1" parent="1">
          <mxGeometry x="-535.5" y="210" width="115.5" height="40" as="geometry" />
        </mxCell>
        <mxCell id="hhIk1MnQmaRh9NZraO68-6" value="&lt;div&gt;Core Library&lt;/div&gt;&lt;div&gt;&amp;nbsp;Files&lt;/div&gt;" style="shape=process;whiteSpace=wrap;html=1;backgroundOutline=1;" vertex="1" parent="1">
          <mxGeometry x="-540" y="270" width="120" height="50" as="geometry" />
        </mxCell>
        <mxCell id="hhIk1MnQmaRh9NZraO68-7" value="&lt;b&gt;etc&lt;/b&gt;" style="rounded=1;whiteSpace=wrap;html=1;" vertex="1" parent="1">
          <mxGeometry x="-200" y="90" width="80" height="40" as="geometry" />
        </mxCell>
        <mxCell id="hhIk1MnQmaRh9NZraO68-8" value="&lt;div&gt;&lt;b&gt;Creating Controller&lt;/b&gt;&lt;/div&gt;" style="ellipse;whiteSpace=wrap;html=1;" vertex="1" parent="1">
          <mxGeometry x="-360" y="-11" width="180" height="80" as="geometry" />
        </mxCell>
        <mxCell id="hhIk1MnQmaRh9NZraO68-10" value="" style="endArrow=classic;html=1;" edge="1" parent="1" target="hhIk1MnQmaRh9NZraO68-7">
          <mxGeometry width="50" height="50" relative="1" as="geometry">
            <mxPoint x="-280" y="69" as="sourcePoint" />
            <mxPoint x="-140" y="240" as="targetPoint" />
          </mxGeometry>
        </mxCell>
        <mxCell id="hhIk1MnQmaRh9NZraO68-12" value="&lt;b&gt;controller&lt;/b&gt;" style="rounded=1;whiteSpace=wrap;html=1;" vertex="1" parent="1">
          <mxGeometry x="-200" y="380" width="110" height="40" as="geometry" />
        </mxCell>
        <mxCell id="hhIk1MnQmaRh9NZraO68-13" value="" style="endArrow=classic;html=1;entryX=0;entryY=0.5;entryDx=0;entryDy=0;" edge="1" parent="1" target="hhIk1MnQmaRh9NZraO68-12">
          <mxGeometry width="50" height="50" relative="1" as="geometry">
            <mxPoint x="-280" y="70" as="sourcePoint" />
            <mxPoint y="300" as="targetPoint" />
            <Array as="points">
              <mxPoint x="-280" y="400" />
            </Array>
          </mxGeometry>
        </mxCell>
        <mxCell id="hhIk1MnQmaRh9NZraO68-14" value="&lt;b&gt;frontend&lt;/b&gt;" style="rounded=1;whiteSpace=wrap;html=1;" vertex="1" parent="1">
          <mxGeometry x="-160" y="160" width="120" height="40" as="geometry" />
        </mxCell>
        <mxCell id="hhIk1MnQmaRh9NZraO68-15" value="&lt;b&gt;adminhtml&lt;/b&gt;" style="rounded=1;whiteSpace=wrap;html=1;" vertex="1" parent="1">
          <mxGeometry x="-160" y="240" width="120" height="40" as="geometry" />
        </mxCell>
        <mxCell id="hhIk1MnQmaRh9NZraO68-19" value="" style="endArrow=none;html=1;" edge="1" parent="1">
          <mxGeometry width="50" height="50" relative="1" as="geometry">
            <mxPoint x="-180" y="300" as="sourcePoint" />
            <mxPoint x="-180" y="130" as="targetPoint" />
          </mxGeometry>
        </mxCell>
        <mxCell id="hhIk1MnQmaRh9NZraO68-20" value="" style="endArrow=classic;html=1;" edge="1" parent="1" target="hhIk1MnQmaRh9NZraO68-14">
          <mxGeometry width="50" height="50" relative="1" as="geometry">
            <mxPoint x="-180" y="180" as="sourcePoint" />
            <mxPoint y="300" as="targetPoint" />
          </mxGeometry>
        </mxCell>
        <mxCell id="hhIk1MnQmaRh9NZraO68-21" value="" style="endArrow=classic;html=1;" edge="1" parent="1">
          <mxGeometry width="50" height="50" relative="1" as="geometry">
            <mxPoint x="-180" y="259.5" as="sourcePoint" />
            <mxPoint x="-160" y="259.5" as="targetPoint" />
          </mxGeometry>
        </mxCell>
        <mxCell id="hhIk1MnQmaRh9NZraO68-23" value="" style="endArrow=classic;html=1;exitX=1;exitY=0.5;exitDx=0;exitDy=0;" edge="1" parent="1" source="hhIk1MnQmaRh9NZraO68-14">
          <mxGeometry width="50" height="50" relative="1" as="geometry">
            <mxPoint x="-50" y="350" as="sourcePoint" />
            <mxPoint x="80" y="180" as="targetPoint" />
          </mxGeometry>
        </mxCell>
        <mxCell id="hhIk1MnQmaRh9NZraO68-24" value="" style="endArrow=classic;html=1;exitX=1;exitY=0.5;exitDx=0;exitDy=0;" edge="1" parent="1" source="hhIk1MnQmaRh9NZraO68-15">
          <mxGeometry width="50" height="50" relative="1" as="geometry">
            <mxPoint x="-30" y="190" as="sourcePoint" />
            <mxPoint x="80" y="260" as="targetPoint" />
          </mxGeometry>
        </mxCell>
        <mxCell id="hhIk1MnQmaRh9NZraO68-25" value="routes.xml" style="rounded=0;whiteSpace=wrap;html=1;" vertex="1" parent="1">
          <mxGeometry x="80" y="160" width="115.5" height="40" as="geometry" />
        </mxCell>
        <mxCell id="hhIk1MnQmaRh9NZraO68-26" value="routes.xml" style="rounded=0;whiteSpace=wrap;html=1;" vertex="1" parent="1">
          <mxGeometry x="80" y="240" width="115.5" height="40" as="geometry" />
        </mxCell>
      </root>
    </mxGraphModel>
  </diagram>
</mxfile>
